<svg fill="none" height="41" viewBox="0 0 39 41" width="39" xmlns="http://www.w3.org/2000/svg"><path d="m13.0446 31.823c0 .1602-.1809.2883-.4089.2883-.2595.0241-.4403-.1041-.4403-.2883 0-.1601.1808-.2882.4088-.2882.2359-.0241.4404.1041.4404.2882zm-2.4454-.3603c-.055.1602.1022.3443.3381.3924.2044.0801.4403 0 .4875-.1602.0472-.1601-.1022-.3443-.3381-.4164-.2044-.056-.4325.024-.4875.1842zm3.4754-.1361c-.228.056-.3853.2082-.3617.3923.0236.1602.228.2643.4639.2083.228-.0561.3853-.2083.3617-.3684-.0236-.1522-.2359-.2563-.4639-.2322zm5.1738-30.685975c-10.90586 0-19.2484 8.432225-19.2484 19.539075 0 8.8807 5.48831 16.4801 13.3276 19.1547 1.0065.1842 1.3603-.4485 1.3603-.969 0-.4965-.0236-3.2351-.0236-4.9168 0 0-5.50402 1.2012-6.65986-2.3863 0 0-.89638-2.3303-2.18589-2.9309 0 0-1.80061-1.2572.1258-1.2332 0 0 1.95787.1602 3.03509 2.0661 1.72196 3.091 4.60766 2.2021 5.73206 1.6736.1808-1.2813.6919-2.1701 1.2581-2.6986-4.3954-.4965-8.83008-1.1452-8.83008-8.8487 0-2.2021.59758-3.3072 1.85564-4.7166-.20443-.5205-.87278-2.6666.20444-5.43728 1.6433-.52051 5.4254 2.16208 5.4254 2.16208 1.5726-.4484 3.2631-.6806 4.9379-.6806s3.3653.2322 4.9379.6806c0 0 3.7821-2.6906 5.4254-2.16208 1.0772 2.77868.4089 4.91678.2044 5.43728 1.2581 1.4174 2.0287 2.5225 2.0287 4.7166 0 7.7276-4.6313 8.3442-9.0266 8.8487.7233.6326 1.3367 1.8337 1.3367 3.7156 0 2.6986-.0236 6.0379-.0236 6.6945 0 .5205.3617 1.1531 1.3602.969 7.863-2.6586 13.194-10.258 13.194-19.1387 0-11.10685-8.8458-19.539075-19.7516-19.539075zm-11.60566 27.618975c-.10222.0801-.07863.2642.05504.4164.12581.1281.30666.1842.40887.0801.10222-.0801.07863-.2643-.05504-.4164-.1258-.1282-.30665-.1842-.40887-.0801zm-.84919-.6487c-.05504.1041.02359.2323.18084.3123.12581.0801.28307.0561.33811-.056.05504-.1041-.02359-.2322-.18085-.3123-.15726-.0481-.28306-.024-.3381.056zm2.54758 2.8508c-.12581.1041-.07863.3444.10222.4965.18084.1842.40887.2082.51109.0801.10226-.1041.05506-.3444-.10222-.4965-.17299-.1842-.40887-.2082-.51109-.0801zm-.89637-1.1771c-.12581.0801-.12581.2883 0 .4724.1258.1842.3381.2643.44032.1842.12581-.1041.12581-.3123 0-.4965-.11008-.1841-.31452-.2642-.44032-.1601z" fill="#848484"/></svg>