<svg fill="none" height="45" viewBox="0 0 39 45" width="39" xmlns="http://www.w3.org/2000/svg" xmlns:xlink="http://www.w3.org/1999/xlink"><clipPath id="a"><path d="m0 0h39v45h-39z"/></clipPath><g clip-path="url(#a)"><path d="m19.5087 12.3926c-5.5367 0-10.00251 4.5088-10.00251 10.0986s4.46581 10.0986 10.00251 10.0986c5.5366 0 10.0024-4.5088 10.0024-10.0986s-4.4658-10.0986-10.0024-10.0986zm0 16.664c-3.578 0-6.503-2.9443-6.503-6.5654s2.9163-6.5654 6.503-6.5654c3.5866 0 6.5029 2.9443 6.5029 6.5654s-2.925 6.5654-6.5029 6.5654zm12.7446-17.0771c0 1.3096-1.0446 2.3555-2.333 2.3555-1.2971 0-2.3331-1.0547-2.3331-2.3555s1.0447-2.35548 2.3331-2.35548 2.333 1.05468 2.333 2.35548zm6.6248 2.3906c-.148-3.1553-.8619-5.95018-3.1514-8.25291-2.2808-2.30274-5.0491-3.02344-8.1743-3.18164-3.221-.18457-12.8752-.18457-16.0962 0-3.11653.14941-5.88483.87011-8.17434 3.17285-2.289511 2.30273-2.994646 5.0977-3.151342 8.2529-.1828129 3.252-.1828129 12.999 0 16.251.147991 3.1553.861831 5.9502 3.151342 8.2529 2.28951 2.3028 5.04911 3.0235 8.17434 3.1817 3.221.1845 12.8752.1845 16.0962 0 3.1252-.1494 5.8935-.8701 8.1743-3.1817 2.2808-2.3027 2.9947-5.0976 3.1514-8.2529.1828-3.252.1828-12.9902 0-16.2422zm-4.1612 19.7315c-.679 1.7226-1.9935 3.0498-3.7085 3.7441-2.568 1.0283-8.6618.791-11.4997.791-2.838 0-8.9405.2285-11.49983-.791-1.70625-.6856-3.02076-2.0127-3.70848-3.7441-1.01853-2.5928-.78349-8.7452-.78349-11.6104s-.22634-9.0264.78349-11.6103c.67901-1.7227 1.99352-3.04985 3.70848-3.74418 2.56803-1.02832 8.66183-.79102 11.49983-.79102 2.8379 0 8.9404-.22851 11.4997.79102 1.7063.68554 3.0208 2.01269 3.7085 3.74418 1.0185 2.5927.7835 8.7451.7835 11.6103s.235 9.0264-.7835 11.6104z" fill="#848484"/></g></svg>