<svg fill="none" height="43" viewBox="0 0 39 43" width="39" xmlns="http://www.w3.org/2000/svg"><path d="m36.2143 2.6875h-33.43729c-1.53214 0-2.77701 1.21777-2.77701 2.7127v32.1996c0 1.4949 1.24487 2.7127 2.77701 2.7127h33.43729c1.5321 0 2.7857-1.2178 2.7857-2.7127v-32.1996c0-1.49493-1.2536-2.7127-2.7857-2.7127zm-24.4272 32.25h-5.7804v-17.9559h5.7891v17.9559zm-2.89022-20.4082c-1.85425 0-3.35157-1.4529-3.35157-3.2334 0-1.78047 1.49732-3.2334 3.35157-3.2334 1.84552 0 3.35152 1.45293 3.35152 3.2334 0 1.7889-1.4973 3.2334-3.35152 3.2334zm24.55782 20.4082h-5.7804v-8.7344c0-2.0828-.0435-4.7619-3.0033-4.7619-3.0121 0-3.4735 2.2676-3.4735 4.6108v8.8855h-5.7803v-17.9559h5.5453v2.4524h.0783c.7748-1.411 2.6639-2.8975 5.4757-2.8975 5.85 0 6.9382 3.7205 6.9382 8.558z" fill="#848484"/></svg>