<svg fill="none" height="46" viewBox="0 0 42 46" width="42" xmlns="http://www.w3.org/2000/svg"><path d="m0 2.875v40.25h42v-40.25zm34.8938 9.5324-2.25 2.0664c-.1969.1438-.2907.3774-.2532.602v15.2105c-.0375.2336.0563.4672.2532.602l2.2031 2.0664v.4582h-11.0625v-.4402l2.2781-2.1204c.225-.2156.225-.2785.225-.6019v-12.2996l-6.3375 15.4172h-.8531l-7.3781-15.4172v10.332c-.0657.4313.0937.8715.4124 1.186l2.9626 3.441v.4582h-8.4188v-.4582l2.9625-3.441c.31875-.3145.4594-.7547.3844-1.186v-11.9492c.0375-.3324-.09378-.6559-.35628-.8805l-2.63437-3.0457v-.4582h8.18435l6.3188 13.2969 5.5594-13.2879h7.8z" fill="#848484"/></svg>